<svg width="843" height="468" viewBox="0 0 843 468" fill="none" xmlns="http://www.w3.org/2000/svg">
<path fill-rule="evenodd" clip-rule="evenodd" d="M592 68H292V468H592V68ZM482 128H352V408H482C509.614 408 532 385.614 532 358V178C532 150.386 509.614 128 482 128Z" fill="#F5F5F5"/>
<path d="M162.138 8.00538C166.28 0.830993 175.454 -1.62712 182.629 2.51501L325.373 84.9286C325.851 85.2047 326.015 85.8163 325.739 86.2946L299.055 132.513C298.779 132.991 298.167 133.155 297.689 132.879L154.945 50.4653C147.77 46.3232 145.312 37.1493 149.454 29.9749L162.138 8.00538Z" fill="#F5F5F5"/>
<path d="M183.141 187.399C187.283 180.224 196.457 177.766 203.631 181.908L322.11 250.312L294.426 298.262L175.947 229.859C168.772 225.716 166.314 216.543 170.456 209.368L183.141 187.399Z" fill="#F5F5F5"/>
<path d="M15.185 261.99C19.3271 254.816 28.501 252.358 35.6754 256.5L319.5 420.366L292 467.998L8.17539 304.131C1.001 299.989 -1.45714 290.815 2.685 283.641L15.185 261.99Z" fill="#F5F5F5"/>
<rect x="575" y="68" width="268" height="65" rx="15" fill="#F5F5F5"/>
<rect x="575" y="403" width="268" height="65" rx="15" fill="#F5F5F5"/>
<rect x="575" y="236" width="171" height="65" rx="15" fill="#F5F5F5"/>
</svg>
